<svg xmlns="http://www.w3.org/2000/svg" xmlns:xlink="http://www.w3.org/1999/xlink" width="337.31" height="172.482" viewBox="0 0 337.31 172.482">
  <defs>
    <clipPath id="clip-path">
      <path id="Path_1" data-name="Path 1" d="M113.564-14.418l-6.586,6.764L99.324.534,93.45-6.408l-3.2-2.848L89-10.324,88.644-22.25,77.252-12.638q-1.6,1.424-4.984,6.942L69.6-.356,54.468-8.01a28.814,28.814,0,0,0-3.026-1.068q-1.78-.534-6.764-1.424l-5.7-.534L36.49-7.476A58.383,58.383,0,0,1,29.1.267,27.153,27.153,0,0,1,21.36,4.984a21.894,21.894,0,0,1-8.01,1.6q-5.518,0-8.544-2.314Q0,1.068,0-7.476A25.1,25.1,0,0,1,5.162-23.14,24.855,24.855,0,0,1,9.7-28.124a41.838,41.838,0,0,1,6.319-4.094q1.958-1.246,7.654-1.78l10.68-.534h7.3a20.074,20.074,0,0,1,4.45.356l7.832-12.638-4.806.178h-4.45A38.412,38.412,0,0,1,33.82-47.882a20.914,20.914,0,0,1-8.188-5.162,46.035,46.035,0,0,1-4.806-5.963,70.985,70.985,0,0,1-3.738-6.319A40.5,40.5,0,0,1,13.706-81.88a85.66,85.66,0,0,1,2.047-17q2.047-9.879,12.371-19.313a58.775,58.775,0,0,1,20.114-11.392l7.832-1.78,8.722-.356a89.572,89.572,0,0,1,13.439,1.068,110.194,110.194,0,0,1,12.816,2.67q5.785,1.6,8.455,4.094l4.984,4.806a8.136,8.136,0,0,0,5.7-2.314l1.958-2.67q2.136-3.026,3.382-1.958a4.3,4.3,0,0,1,.534,1.424,14.757,14.757,0,0,1-1.6,5.34,10.409,10.409,0,0,1-1.78,3.382v77.786l.178,16.91a2.916,2.916,0,0,0,1.068,1.78l2.314.534,1.424-.178Zm-24.92-48.95V-97.9L68.53-63.368v1.958a2.415,2.415,0,0,0,.712,1.78l1.78.89q2.67,1.068,9.256,1.068a9.916,9.916,0,0,0,4.272-.712l2.492-1.424,1.424-2.136Zm-1.6-40.762-3.2-3.026a35.18,35.18,0,0,0-3.56-2.759q-1.958-1.335-4.539-2.759a26.839,26.839,0,0,0-6.764-2.4,36.229,36.229,0,0,0-8.277-.979,42.1,42.1,0,0,0-14.151,2.492A40.287,40.287,0,0,0,34-106.444,38.088,38.088,0,0,0,23.763-92.382a46.54,46.54,0,0,0-3.471,18.334,23.65,23.65,0,0,0,6.052,15.664A24.915,24.915,0,0,0,37.38-50.73a33.793,33.793,0,0,0,7.832.712l6.052-.178,4.806-.534Zm1.78,66.216-.178-9.256-.178-1.068L87.4-50.018l-1.424-.712-1.068-.356-23.318-.178L51.442-33.642H53.4a26.219,26.219,0,0,1,10.5,4.628l6.23,3.2a27.437,27.437,0,0,0,2.759.623q1.513.267,2.581.445a9.971,9.971,0,0,0,6.764-2.67q.712-.712,1.691-1.869A22.216,22.216,0,0,0,85.8-31.862l2.67-5.162ZM34.354-12.638,32.04-13.35q-2.314-.534-3.2-.712a16.131,16.131,0,0,0-2.848-.178,22.918,22.918,0,0,0-8.9,1.78Q9.256-8.9,9.256-4.272l.356,3.2q1.424,3.382,5.7,3.382l4.45-.712L24.564-.712a15.339,15.339,0,0,0,4.094-3.56l2.848-3.56ZM157.174-113.03a19.3,19.3,0,0,0-3.916,2.136,10.623,10.623,0,0,0-3.916,8.366v84.372a5.8,5.8,0,0,0,3.026,5.34l2.67.89-2.314,1.958L148.1-5.7,144.358-.534,143.468.89l-2.492-3.382L136.17-8.366a23.923,23.923,0,0,0-5.7-4.628l-3.2-2.136,1.78-.534a4.364,4.364,0,0,0,1.958-3.738v-87.754l7.3,6.052,2.314-3.738a28.369,28.369,0,0,1,5.518-6.23,11.868,11.868,0,0,1,3.738-1.6l4.628-.534h1.78ZM215.024-29.9a41.524,41.524,0,0,1-.623,4.628,19.381,19.381,0,0,1-1.157,3.026q-3.56,8.188-12.994,12.816A16.445,16.445,0,0,0,192.062-1.6l-1.6,4.628a8.288,8.288,0,0,0-4.806-3.2l-2.848-.178V30.438a7,7,0,0,0,1.246,3.738l1.068,1.6L180.848,32.4a7.316,7.316,0,0,1-2.136-3.026L178,27.234l-2.136,2.67q-1.78,2.314-2.492,3.2a35.3,35.3,0,0,1-2.492,2.848q-1.958,2.67-7.476,3.916l-4.806.89,2.492-3.026a19.078,19.078,0,0,0,3.382-6.23l1.246-5.874.178-3.026V-6.942l.178-53.222v-1.78a5.162,5.162,0,0,0-4.45-4.45l6.586-6.586q2.136-2.67,2.314-2.848a23.444,23.444,0,0,0,2.136-3.56l.89-1.246,2.314,1.958a23.778,23.778,0,0,1,4.45,4.628l2.67,5.34a8.538,8.538,0,0,0,1.068,2.314,12.237,12.237,0,0,0,7.654-2.314q.534-.534,2.136-2.4a33.543,33.543,0,0,0,2.314-2.937,36.118,36.118,0,0,0,3.382-5.518l1.424-2.848,2.314,1.424q5.518,3.56,6.942,5.34a36.119,36.119,0,0,1,3.382,5.518l1.424,3.382ZM197.4-11.036V-54.29l-.712-4.094a6.12,6.12,0,0,0-6.23-4.45q-3.738,0-5.518,4.094l-.89,4.094v38.27l.712,1.424a9.6,9.6,0,0,0,2.492,2.314l4.272,1.246A31.882,31.882,0,0,0,197.4-11.036ZM276.434-12.1l-3.916,4.628-3.2,5.7-1.958,3.738-5.34-6.408-3.738-3.56-2.492-2.136V-57.138a10.306,10.306,0,0,0-1.157-4.984q-1.157-2.136-4.539-2.136a6.789,6.789,0,0,0-3.56,1.246,11.5,11.5,0,0,0-2.314,2.848V-17.8a5.727,5.727,0,0,0,2.848,5.162l2.848,1.068L247.6-9.79l-4.272,4.272L239.41-.712,238.52.712l-2.136-3.2-4.806-5.874Q229.62-10.324,229-10.858a29.289,29.289,0,0,0-2.937-1.958l-3.2-2.136,1.78-.534q1.6-.89,1.78-3.738l.178-88.644,6.942,5.874,2.314-3.738a21.458,21.458,0,0,1,5.162-5.874,11.78,11.78,0,0,1,3.916-1.6l4.45-.534h1.78l-3.026,2.136a11.4,11.4,0,0,0-3.738,8.188v36.134a7.847,7.847,0,0,0,5.518-1.958l3.916-4.45,3.2-5.34a12.117,12.117,0,0,1,1.424-3.2l3.026.89a15.882,15.882,0,0,1,5.607,3.293q1.869,1.869,3.827,7.565l1.246,4.984v47.17a3.594,3.594,0,0,0,1.6,3.2,19.287,19.287,0,0,0,3.738.89h1.068Zm60.876-1.424-5.7,5.7a30.123,30.123,0,0,0-4.272,6.23l-.89,1.78-1.6-.89a13,13,0,0,1-5.162-4.094,21.973,21.973,0,0,1-3.382-6.23l-.712-2.136-2.848,1.6L307.94-8.188a30.372,30.372,0,0,0-4.094,5.162l-2.314,3.2-3.738-1.246a21.179,21.179,0,0,1-5.607-2.759,23.068,23.068,0,0,1-4.361-5.785l-1.958-3.916V-65.682l5.7-.89a33.092,33.092,0,0,0,11.926-5.34,57.5,57.5,0,0,0,4.539-3.649,23.78,23.78,0,0,0,3.293-3.649l1.424-2.848,3.382,2.492,8.188,4.806,8.544,4.094,3.56,1.6q-2.67.534-3.2,3.916a65.567,65.567,0,0,0-.712,6.586q-.178,3.2-.178,10.146v8.9q0,15.486.8,20.381T337.31-13.528ZM318.976-62.834l-3.382-.534-4.628-1.068-3.382-2.136a9.952,9.952,0,0,0-3.56-1.78l-1.424.534-.356,43.254.712,3.382a8.13,8.13,0,0,0,1.78,2.492l2.67,2.848a4.378,4.378,0,0,0,1.958,1.424,5.075,5.075,0,0,0,4.272-2.136l2.314-3.382V-53.4l.712-1.246,1.424-2.848.712-2.492Z" transform="translate(2784 5158)" fill="#fff"/>
    </clipPath>
    <linearGradient id="linear-gradient" x1="1.015" y1="0.5" x2="0" y2="0.5" gradientUnits="objectBoundingBox">
      <stop offset="0" stop-color="#3ac7ac"/>
      <stop offset="1" stop-color="#191355"/>
    </linearGradient>
  </defs>
  <g id="Mask_Group_1" data-name="Mask Group 1" transform="translate(-2784 -5026.28)" clip-path="url(#clip-path)">
    <rect id="Rectangle_17" data-name="Rectangle 17" width="386" height="232" transform="translate(2769 4994)" fill="url(#linear-gradient)"/>
  </g>
</svg>
